<svg xmlns="http://www.w3.org/2000/svg" width="186" height="34" viewBox="0 0 186 34">
    <path fill="#FFF" fill-rule="evenodd" d="M91.627 2.958h-.632c-.633 0-1.149.514-1.149 1.146v25.793a1.15 1.15 0 0 0 1.15 1.146h.631a1.15 1.15 0 0 0 1.15-1.146V4.104a1.15 1.15 0 0 0-1.15-1.146M72.093 6.179h-.632c-.633 0-1.149.514-1.149 1.146v19.35c0 .632.516 1.146 1.149 1.146h.632a1.15 1.15 0 0 0 1.15-1.146V7.325a1.15 1.15 0 0 0-1.15-1.146M81.86 0h-.631a1.15 1.15 0 0 0-1.15 1.147v31.707A1.15 1.15 0 0 0 81.23 34h.631a1.15 1.15 0 0 0 1.15-1.146V1.147A1.15 1.15 0 0 0 81.86 0m4.884 5.643h-.632a1.15 1.15 0 0 0-1.15 1.146v20.422a1.15 1.15 0 0 0 1.15 1.146h.632c.633 0 1.149-.514 1.149-1.146V6.79c0-.632-.516-1.146-1.15-1.146m-9.766-1.88h-.632c-.634 0-1.15.515-1.15 1.147v24.18c0 .633.516 1.147 1.15 1.147h.632c.634 0 1.149-.514 1.149-1.146V4.91c0-.633-.515-1.147-1.15-1.147m19.535 6.645h-.633a1.15 1.15 0 0 0-1.148 1.147v10.889c0 .631.515 1.146 1.148 1.146h.633c.633 0 1.149-.515 1.149-1.146v-10.89a1.15 1.15 0 0 0-1.149-1.146m-29.301 0h-.632a1.15 1.15 0 0 0-1.15 1.147v10.889c0 .631.516 1.146 1.15 1.146h.632a1.15 1.15 0 0 0 1.149-1.146v-10.89a1.15 1.15 0 0 0-1.15-1.146m109.8 3.061c-3.113-1.257-4.382-2.349-4.382-3.767 0-1 1.042-1.813 2.322-1.813 2.119 0 4.694 1.71 5.54 2.272.153.103.263.174.276.177.196.152.45.206.74.155a1.872 1.872 0 0 0 1.167-.778l2.157-3.25c.243-.425.327-1.385-.343-1.772-1.64-1.2-5.016-3.212-9.2-3.212-4.995 0-10.05 2.982-10.05 8.683 0 5.191 4.553 8.077 8.371 9.583 2.816 1.115 4.127 2.365 4.127 3.935 0 1.29-1.058 2.19-2.575 2.19-1.083 0-2.941-.374-5.64-2.155a1.996 1.996 0 0 0-.146-.093c-.27-.192-.71-.27-1.1-.191-.35.07-.626.257-.806.55l-1.978 3.483c-.444.776-.196 1.11.264 1.57.556.556 3.641 3.328 9.702 3.328 6.422 0 10.26-4.585 10.26-9.018 0-6.423-6.555-9.023-8.707-9.877M157.427 1.692h-5.177c-.622 0-1.128.505-1.128 1.126V19.82c0 2.828-2.12 4.962-4.931 4.962-2.764 0-4.848-2.134-4.848-4.962V2.818c0-.621-.506-1.126-1.128-1.126h-5.176c-.602 0-1.129.526-1.129 1.126v17.34c0 6.615 5.509 11.998 12.28 11.998 6.818 0 12.365-5.383 12.365-11.999V2.817c0-.599-.527-1.125-1.128-1.125m-36.805 9.731c0-1.551-1.314-2.862-2.87-2.862h-5.899v5.893h5.9c1.528 0 2.87-1.416 2.87-3.03m1.084 8.475l5.594 10.346a1.19 1.19 0 0 1-.005 1.169c-.202.338-.567.532-1 .532h-5.598c-.472 0-.832-.29-.967-.56l-5.506-10.944h-2.372V30.82c0 .6-.527 1.126-1.128 1.126h-5.008a1.128 1.128 0 0 1-1.128-1.126V3.027c0-.62.506-1.125 1.128-1.125H118.3c5.24 0 9.502 4.215 9.502 9.396 0 3.69-2.325 6.957-6.095 8.601M57.391 1.902h-5.007c-.623 0-1.129.504-1.129 1.125v10.252H39.877V3.027c0-.62-.506-1.125-1.129-1.125h-5.007c-.601 0-1.129.525-1.129 1.125V30.82c0 .6.528 1.126 1.129 1.126h5.007c.623 0 1.129-.505 1.129-1.126V20.107h11.378V30.82c0 .62.506 1.126 1.129 1.126h5.007c.601 0 1.128-.526 1.128-1.126V3.027c0-.6-.527-1.125-1.128-1.125M7.811 16.798c0 4.595 3.498 8.194 7.962 8.194 1.986 0 4.014-.724 5.424-1.935.442-.378 1.199-.342 1.559.076l3.272 3.474c.408.407.389 1.154-.05 1.59-2.816 2.728-6.432 4.168-10.458 4.168C6.963 32.365 0 25.457 0 16.966 0 8.428 6.963 1.482 15.52 1.482c4.164 0 7.373 1.23 10.406 3.99.245.217.387.508.397.817.008.307-.113.603-.345.833l-3.277 3.395a1.065 1.065 0 0 1-1.522.005c-1.456-1.294-3.447-2.045-5.448-2.045-4.44 0-7.92 3.655-7.92 8.32"/>
</svg>
